# xmcd CD database file
#
# Track frame offsets:
#	150
#	26746
#	51788
#	78397
#	104973
#	129600
#	152411
#	175922
#	203792
#	231377
#	247775
#
# Disc length: 3682 seconds
#
# Revision: 3
# Processed by: cddbd v1.5.2PL0 Copyright (c) Steve Scherf et al.
# Submitted via: CDex 1.70beta2
#
DISCID=900e600b
DTITLE=The Jazzinvaders - UP and OUT
DYEAR=2006
DGENRE=Jazz
TTITLE0=Bonga Bonga Jazz
TTITLE1=Go Ahead
TTITLE2=Dutch Flies
TTITLE3=Movements
TTITLE4=Love and Happiness
TTITLE5=Wo Ya
TTITLE6=Licks and Brains
TTITLE7=Up and Out
TTITLE8=Black
TTITLE9=Die Erste Kugel
TTITLE10=No Nonsense
EXTD=YEAR: 2006
EXTT0=
EXTT1=
EXTT2=
EXTT3=
EXTT4=
EXTT5=
EXTT6=
EXTT7=
EXTT8=
EXTT9=
EXTT10=
PLAYORDER=
